<svg xmlns="http://www.w3.org/2000/svg" version="1.1" xmlns:xlink="http://www.w3.org/1999/xlink" xmlns:svgjs="http://svgjs.dev/svgjs" width="560" height="1440" preserveAspectRatio="none" viewBox="0 0 560 1440"><g mask="url(&quot;#SvgjsMask1075&quot;)" fill="none"><rect width="560" height="1440" x="0" y="0" fill="rgba(216, 210, 242, 1)"></rect><path d="M122 529L121 1204" stroke-width="8" stroke="url(&quot;#SvgjsLinearGradient1076&quot;)" stroke-linecap="round" class="Down"></path><path d="M128 591L127 1096" stroke-width="8" stroke="url(&quot;#SvgjsLinearGradient1077&quot;)" stroke-linecap="round" class="Up"></path><path d="M8 1148L7 177" stroke-width="6" stroke="url(&quot;#SvgjsLinearGradient1076&quot;)" stroke-linecap="round" class="Down"></path><path d="M214 170L213 -556" stroke-width="10" stroke="url(&quot;#SvgjsLinearGradient1077&quot;)" stroke-linecap="round" class="Up"></path><path d="M489 258L488 1232" stroke-width="10" stroke="url(&quot;#SvgjsLinearGradient1077&quot;)" stroke-linecap="round" class="Up"></path><path d="M341 919L340 400" stroke-width="6" stroke="url(&quot;#SvgjsLinearGradient1077&quot;)" stroke-linecap="round" class="Up"></path><path d="M474 1175L473 786" stroke-width="6" stroke="url(&quot;#SvgjsLinearGradient1076&quot;)" stroke-linecap="round" class="Down"></path><path d="M13 946L12 1392" stroke-width="8" stroke="url(&quot;#SvgjsLinearGradient1076&quot;)" stroke-linecap="round" class="Down"></path><path d="M437 667L436 1357" stroke-width="10" stroke="url(&quot;#SvgjsLinearGradient1077&quot;)" stroke-linecap="round" class="Up"></path><path d="M298 752L297 194" stroke-width="10" stroke="url(&quot;#SvgjsLinearGradient1076&quot;)" stroke-linecap="round" class="Down"></path><path d="M194 60L193 1099" stroke-width="10" stroke="url(&quot;#SvgjsLinearGradient1076&quot;)" stroke-linecap="round" class="Down"></path><path d="M532 893L531 -150" stroke-width="8" stroke="url(&quot;#SvgjsLinearGradient1076&quot;)" stroke-linecap="round" class="Down"></path><path d="M94 1104L93 620" stroke-width="10" stroke="url(&quot;#SvgjsLinearGradient1076&quot;)" stroke-linecap="round" class="Down"></path><path d="M246 333L245 -314" stroke-width="6" stroke="url(&quot;#SvgjsLinearGradient1077&quot;)" stroke-linecap="round" class="Up"></path></g><defs><mask id="SvgjsMask1075"><rect width="560" height="1440" fill="#ffffff"></rect></mask><linearGradient x1="0%" y1="0%" x2="0%" y2="100%" id="SvgjsLinearGradient1076"><stop stop-color="rgba(96, 83, 155, 0)" offset="0"></stop><stop stop-color="rgba(96, 83, 155, 1)" offset="1"></stop></linearGradient><linearGradient x1="0%" y1="100%" x2="0%" y2="0%" id="SvgjsLinearGradient1077"><stop stop-color="rgba(96, 83, 155, 0)" offset="0"></stop><stop stop-color="rgba(96, 83, 155, 1)" offset="1"></stop></linearGradient></defs></svg>